# xmcd CD database file
#
# Track frame offsets:
#	300
#	34570
#	62735
#	95456
#	121590
#	139425
#	204787
#	239766
#	264066
#	295570
#
# Disc length: 4218 seconds
#
# Revision: 1
# Processed by: cddbd v1.5.2PL0 Copyright (c) Steve Scherf et al.
# Submitted via: CDex 1.51
#
DISCID=8510760a
DTITLE=Cooder - Lindley Family - Live At The Vienna Opera House CD 1
DYEAR=1995
DGENRE=Blues
TTITLE0=Promised Land
TTITLE1=Jesus on the Mainline
TTITLE2=Mercury Blues
TTITLE3=Afindafrindrao
TTITLE4=Si Beg Si Mhor
TTITLE5=Paris Texas - Vigilante Man
TTITLE6=The Girls from Texas
TTITLE7=All Shook Up
TTITLE8=How Can A Poor Man
TTITLE9=Leave Home Blues
EXTD=YEAR: 1995
EXTT0=
EXTT1=
EXTT2=
EXTT3=
EXTT4=
EXTT5=
EXTT6=
EXTT7=
EXTT8=
EXTT9=
PLAYORDER=
